<?xml version="1.0" standalone="no"?>
<!DOCTYPE svg PUBLIC "-//W3C//DTD SVG 20010904//EN"
 "http://www.w3.org/TR/2001/REC-SVG-20010904/DTD/svg10.dtd">
<svg version="1.0" xmlns="http://www.w3.org/2000/svg"
 width="512.000000pt" height="512.000000pt" viewBox="0 0 512.000000 512.000000"
 preserveAspectRatio="xMidYMid meet">

<g transform="translate(0.000000,512.000000) scale(0.100000,-0.100000)"
fill="#000000" stroke="none">
<path d="M1005 5096 c-131 -41 -234 -169 -256 -319 -5 -34 -9 -358 -9 -719 l0
-658 1820 0 1821 0 -3 703 c-3 627 -5 707 -20 751 -38 112 -137 209 -243 241
-41 13 -264 15 -1559 14 -1184 0 -1520 -3 -1551 -13z m2948 -256 c71 -27 129
-78 161 -142 l26 -52 0 -493 0 -493 -1580 0 -1581 0 3 498 3 497 23 48 c29 58
96 115 165 138 49 17 131 18 1389 19 1315 0 1338 0 1391 -20z"/>
<path d="M1403 4590 c-17 -10 -37 -28 -42 -39 -7 -13 -11 -123 -11 -306 l0
-287 34 -34 c30 -30 40 -34 86 -34 46 0 56 4 86 34 l34 34 0 289 c0 316 0 317
-60 348 -40 21 -89 19 -127 -5z"/>
<path d="M740 1753 c0 -850 4 -1421 10 -1457 18 -113 88 -204 194 -253 l61
-28 1560 0 1560 0 57 28 c72 35 130 93 165 165 l28 57 3 1443 2 1442 -1820 0
-1820 0 0 -1397z m3398 -60 c-3 -1218 -3 -1218 -24 -1264 -29 -61 -85 -116
-153 -148 l-56 -26 -1335 0 c-1310 0 -1336 0 -1390 20 -73 26 -150 102 -173
169 -16 45 -17 154 -17 1258 l0 1208 1575 0 1575 0 -2 -1217z"/>
<path d="M1413 2520 c-63 -38 -63 -40 -63 -455 0 -416 2 -428 62 -465 41 -25
74 -25 114 -1 62 38 64 49 64 460 0 411 -2 424 -62 461 -42 25 -74 25 -115 0z"/>
</g>
</svg>
