<?xml version="1.0" standalone="no"?>
<!--<!DOCTYPE svg PUBLIC "-//W3C//DTD SVG 20010904//EN"
 "http://www.w3.org/TR/2001/REC-SVG-20010904/DTD/svg10.dtd">-->
<svg version="1.0" xmlns="http://www.w3.org/2000/svg"
 width="256.000000pt" height="256.000000pt" viewBox="0 0 256.000000 256.000000"
 preserveAspectRatio="xMidYMid meet">

<g transform="translate(0.000000,256.000000) scale(0.100000,-0.100000)"
fill="#000000" stroke="none">
<path d="M1089 2355 c-43 -23 -51 -59 -47 -208 2 -111 6 -138 21 -154 11 -13
17 -35 17 -64 -1 -41 -4 -46 -45 -72 -88 -56 -155 -166 -174 -287 -7 -40 -11
-300 -11 -678 0 -658 0 -660 51 -696 21 -14 66 -16 372 -16 392 0 398 1 418
70 7 23 9 262 7 695 l-3 660 -23 58 c-30 72 -85 143 -151 191 -45 34 -51 42
-51 74 0 21 9 51 20 67 17 26 20 47 20 171 l0 142 -29 31 -29 31 -169 0 c-125
-1 -175 -4 -194 -15z m331 -195 l0 -121 -142 3 -143 3 -3 118 -3 117 146 0
145 0 0 -120z m-30 -272 l0 -63 41 -19 c56 -27 116 -91 148 -156 l26 -55 3
-663 3 -662 -333 2 -333 3 -2 640 c-2 628 -1 641 19 704 26 75 93 155 161 189
44 22 45 22 40 67 -9 74 -8 75 117 75 l110 0 0 -62z"/>
</g>
</svg>
