<?xml version="1.0" standalone="no"?>
<!--<!DOCTYPE svg PUBLIC "-//W3C//DTD SVG 20010904//EN"
 "http://www.w3.org/TR/2001/REC-SVG-20010904/DTD/svg10.dtd">-->
<svg version="1.0" xmlns="http://www.w3.org/2000/svg"
 width="256.000000pt" height="256.000000pt" viewBox="0 0 256.000000 256.000000"
 preserveAspectRatio="xMidYMid meet">

<g transform="translate(0.000000,256.000000) scale(0.100000,-0.100000)"
fill="#000000" stroke="none">
<path d="M1018 2174 c-208 -41 -364 -127 -530 -294 -153 -154 -138 -75 -138
-707 0 -621 -7 -575 91 -587 255 -32 433 -57 548 -77 103 -18 115 -14 155 40
27 38 43 51 70 56 58 11 113 -28 122 -86 4 -21 12 -43 18 -48 12 -10 147 -33
336 -56 63 -8 175 -24 248 -35 177 -27 250 -29 262 -10 6 9 10 232 10 556 l0
542 -71 57 c-39 31 -100 80 -137 108 -37 28 -72 56 -78 62 -7 5 -35 28 -64 50
-29 22 -81 63 -115 90 -35 28 -86 68 -115 90 -29 22 -81 63 -115 90 -35 28
-86 68 -115 90 -29 22 -58 46 -65 52 -8 7 -25 17 -40 23 -36 14 -196 11 -277
-6z m288 -133 c55 -44 152 -120 299 -236 71 -55 154 -120 186 -145 31 -25 80
-63 108 -85 28 -21 49 -40 47 -42 -3 -3 -78 7 -246 31 -52 8 -142 22 -200 30
-58 9 -134 20 -170 26 -36 6 -114 17 -175 26 -111 16 -249 36 -360 53 -33 5
-109 16 -169 25 -60 9 -111 18 -113 19 -2 2 36 42 85 89 171 165 389 253 603
244 58 -3 72 -7 105 -35z m-721 -421 c60 -9 196 -29 375 -55 153 -22 370 -54
435 -65 33 -5 110 -17 170 -25 61 -9 133 -20 160 -25 28 -5 102 -16 165 -25
63 -9 139 -20 168 -26 l52 -10 0 -460 0 -459 -22 0 c-12 0 -47 4 -77 10 -66
11 -331 48 -446 61 -113 13 -123 16 -130 40 -10 30 -73 97 -107 115 -41 21
-148 20 -190 -2 -18 -9 -46 -31 -61 -47 l-29 -31 -106 13 c-59 7 -129 17 -157
21 -27 4 -108 15 -178 24 -71 9 -133 19 -138 22 -5 3 -9 207 -9 476 l0 470 33
-6 c17 -3 59 -10 92 -16z"/>
<path d="M733 1440 c-48 -29 -67 -65 -67 -124 0 -59 20 -96 69 -126 64 -40
157 -16 193 49 39 71 30 132 -28 185 -34 31 -47 36 -88 36 -29 0 -59 -7 -79
-20z m122 -75 c14 -13 25 -34 25 -46 0 -34 -38 -69 -74 -69 -37 0 -47 7 -65
41 -15 31 -5 58 31 83 32 22 55 20 83 -9z"/>
<path d="M1764 1209 c-78 -22 -128 -113 -105 -189 35 -118 178 -153 266 -64
33 32 35 39 35 99 0 58 -3 68 -31 100 -32 36 -87 66 -118 64 -9 0 -30 -5 -47
-10z m109 -100 c25 -30 22 -75 -8 -104 -65 -66 -168 14 -124 96 23 43 99 47
132 8z"/>
<path d="M1090 1021 c-48 -48 -51 -101 -10 -154 24 -30 79 -49 120 -40 16 3
41 18 57 35 23 24 28 38 28 78 0 40 -5 54 -29 79 -26 27 -37 31 -84 31 -46 0
-58 -4 -82 -29z m114 -57 c21 -21 20 -29 -6 -54 -19 -17 -24 -18 -42 -6 -25
16 -32 42 -16 61 16 19 45 19 64 -1z"/>
</g>
</svg>
