<?xml version="1.0" standalone="no"?>
<!--<!DOCTYPE svg PUBLIC "-//W3C//DTD SVG 20010904//EN"
 "http://www.w3.org/TR/2001/REC-SVG-20010904/DTD/svg10.dtd">-->
<svg version="1.0" xmlns="http://www.w3.org/2000/svg"
 width="256.000000pt" height="256.000000pt" viewBox="0 0 256.000000 256.000000"
 preserveAspectRatio="xMidYMid meet">

<g transform="translate(0.000000,256.000000) scale(0.100000,-0.100000)"
fill="#000000" stroke="none">
<path d="M1595 2339 c-140 -21 -265 -78 -372 -168 -135 -114 -224 -264 -352
-596 -118 -308 -157 -380 -267 -498 -64 -68 -74 -90 -53 -129 16 -29 5 -57
-40 -106 l-40 -42 -78 0 c-68 0 -85 -4 -130 -30 -111 -64 -144 -192 -71 -276
49 -56 101 -78 184 -79 l71 0 28 -52 c60 -116 134 -162 235 -148 65 9 144 57
177 107 37 55 38 133 3 204 l-25 50 32 54 c97 168 139 216 227 256 64 29 140
41 332 54 324 21 586 104 732 231 251 219 283 595 76 885 -84 118 -251 232
-394 268 -76 19 -204 26 -275 15z m239 -109 c213 -54 384 -212 444 -410 88
-291 -26 -535 -313 -671 -145 -68 -300 -99 -655 -128 -192 -16 -282 -52 -367
-145 l-50 -55 -88 50 c-48 27 -103 60 -121 74 l-34 26 44 53 c104 128 165 245
281 536 42 107 99 238 126 290 161 315 434 457 733 380z m-1097 -1432 c52 -29
98 -59 100 -65 3 -7 -13 -40 -36 -73 -47 -69 -50 -95 -16 -146 67 -98 25 -190
-93 -202 -46 -4 -53 -2 -87 30 -33 30 -38 41 -42 89 -9 116 -24 131 -98 98
-59 -26 -147 -23 -188 6 -25 18 -27 25 -24 63 8 81 61 112 191 112 l85 0 52
70 c28 39 54 70 56 70 2 0 47 -24 100 -52z"/>
<path d="M2067 1783 c-13 -13 -7 -42 23 -98 34 -64 37 -99 15 -152 -26 -61
-60 -98 -123 -131 -64 -34 -78 -52 -62 -83 14 -25 36 -24 98 7 65 32 145 119
166 180 31 91 12 200 -46 262 -21 21 -57 29 -71 15z"/>
</g>
</svg>
