<?xml version="1.0" standalone="no"?>
<!--<!DOCTYPE svg PUBLIC "-//W3C//DTD SVG 20010904//EN"
 "http://www.w3.org/TR/2001/REC-SVG-20010904/DTD/svg10.dtd">-->
<svg version="1.0" xmlns="http://www.w3.org/2000/svg"
 width="256.000000pt" height="256.000000pt" viewBox="0 0 256.000000 256.000000"
 preserveAspectRatio="xMidYMid meet">

<g transform="translate(0.000000,256.000000) scale(0.100000,-0.100000)"
fill="#000000" stroke="none">
<path d="M1179 2461 c-153 -29 -356 -172 -480 -341 -27 -36 -59 -78 -72 -95
-50 -64 -158 -275 -193 -380 -79 -232 -99 -340 -99 -545 0 -153 2 -166 46
-333 23 -85 124 -273 188 -349 99 -118 240 -219 386 -277 158 -62 371 -75 543
-33 52 13 101 27 110 32 10 4 46 23 82 41 222 110 393 311 487 574 30 84 53
236 53 348 -1 272 -78 541 -240 832 -33 59 -42 72 -133 192 -103 134 -253 253
-389 307 -74 29 -208 41 -289 27z m256 -126 c39 -15 95 -43 125 -63 55 -36
176 -151 217 -207 12 -17 39 -52 59 -79 148 -200 280 -571 287 -809 5 -172 -6
-267 -48 -390 -103 -305 -308 -501 -610 -583 -67 -18 -303 -18 -370 0 -298 81
-509 284 -612 589 l-38 112 0 210 0 210 38 134 c36 123 82 247 126 331 45 86
85 156 97 167 6 7 23 29 35 50 74 120 254 280 360 319 137 51 216 53 334 9z"/>
<path d="M640 919 c0 -27 102 -212 136 -246 7 -8 19 -22 26 -31 27 -36 136
-121 199 -156 53 -29 76 -36 122 -36 52 0 57 2 57 21 0 25 -26 48 -55 49 -26
0 -141 67 -201 116 -60 50 -123 132 -169 222 -36 71 -37 72 -76 72 -21 0 -39
-5 -39 -11z"/>
</g>
</svg>
