<?xml version="1.0" standalone="no"?>
<!--<!DOCTYPE svg PUBLIC "-//W3C//DTD SVG 20010904//EN"
 "http://www.w3.org/TR/2001/REC-SVG-20010904/DTD/svg10.dtd">-->
<svg version="1.0" xmlns="http://www.w3.org/2000/svg"
 width="256.000000pt" height="256.000000pt" viewBox="0 0 256.000000 256.000000"
 preserveAspectRatio="xMidYMid meet">

<g transform="translate(0.000000,256.000000) scale(0.100000,-0.100000)"
fill="#000000" stroke="none">
<path d="M1063 2363 c-12 -2 -34 -18 -48 -34 -23 -28 -25 -38 -25 -125 0 -93
0 -95 26 -105 l27 -10 -7 -157 c-11 -243 -27 -311 -131 -581 -74 -190 -77
-220 -82 -664 -4 -387 -4 -398 16 -430 11 -19 32 -39 46 -45 18 -9 136 -12
401 -12 413 0 418 1 450 61 13 27 15 80 11 437 -4 462 -5 467 -93 690 -93 234
-114 339 -114 563 0 138 1 147 20 152 18 5 20 14 20 102 0 53 -5 105 -11 117
-22 41 -65 48 -281 47 -112 -1 -213 -4 -225 -6z m431 -69 c12 -5 16 -21 16
-65 l0 -59 -225 0 -225 0 0 59 c0 38 4 61 13 64 18 8 402 8 421 1z m-29 -244
l0 -45 -180 0 -180 0 -3 33 c-6 64 -10 63 185 60 l178 -3 0 -45z m5 -174 c0
-29 3 -74 6 -100 l7 -46 -198 0 -197 0 6 23 c3 12 6 57 6 100 l0 77 185 0 185
0 0 -54z m45 -301 c12 -44 43 -132 68 -196 89 -221 90 -230 94 -682 3 -299 1
-402 -8 -413 -10 -12 -72 -14 -385 -14 -368 0 -373 0 -384 21 -8 15 -10 135
-8 407 5 441 7 454 103 696 44 112 64 172 79 239 l6 27 207 -2 206 -3 22 -80z"/>
<path d="M1151 1169 c-78 -15 -172 -51 -178 -67 -4 -8 8 -157 26 -331 26 -253
36 -318 49 -328 23 -19 451 -18 476 0 14 11 22 63 50 328 17 174 30 322 28
328 -6 19 -81 48 -166 66 -81 16 -213 18 -285 4z m294 -79 c43 -11 81 -22 83
-25 6 -5 -48 -545 -55 -557 -2 -5 -87 -8 -188 -8 -183 0 -185 0 -189 23 -4 18
-56 519 -56 538 0 6 83 30 145 43 57 11 188 4 260 -14z"/>
</g>
</svg>
