<?xml version="1.0" standalone="no"?>
<!--<!DOCTYPE svg PUBLIC "-//W3C//DTD SVG 20010904//EN"
 "http://www.w3.org/TR/2001/REC-SVG-20010904/DTD/svg10.dtd">-->
<svg version="1.0" xmlns="http://www.w3.org/2000/svg"
 width="256.000000pt" height="256.000000pt" viewBox="0 0 256.000000 256.000000"
 preserveAspectRatio="xMidYMid meet">

<g transform="translate(0.000000,256.000000) scale(0.100000,-0.100000)"
fill="#000000" stroke="none">
<path d="M820 2280 c-122 -22 -145 -132 -62 -305 23 -48 41 -89 40 -89 -2 -1
-28 -10 -59 -20 -149 -49 -197 -121 -128 -195 l22 -23 -36 -36 c-32 -32 -41
-36 -81 -33 -37 2 -50 -2 -71 -23 -22 -22 -25 -34 -25 -94 0 -77 26 -141 72
-175 21 -15 29 -17 47 -8 28 16 27 34 -9 83 -24 32 -30 51 -30 91 0 43 2 48
18 42 52 -23 66 -18 111 35 51 61 95 90 134 90 43 0 108 -68 151 -156 21 -41
44 -78 51 -81 8 -3 45 17 82 45 69 50 131 82 163 82 51 0 75 -91 40 -157 -17
-33 -19 -46 -10 -62 16 -30 46 -26 72 10 13 18 49 43 84 59 107 48 121 102 54
213 -22 36 -40 73 -40 81 0 20 34 41 88 56 47 12 62 35 62 96 0 26 8 44 29 65
33 32 63 36 133 18 38 -10 48 -9 85 10 60 30 116 28 142 -5 28 -36 51 -116 51
-180 0 -71 6 -83 56 -104 60 -26 64 -48 21 -132 l-36 -69 20 -34 c16 -27 18
-38 9 -55 -14 -27 -5 -40 29 -40 42 0 55 22 48 82 -5 42 -2 62 14 95 40 83 22
171 -44 212 -32 20 -34 25 -40 91 -6 74 -34 150 -70 189 -46 50 -133 65 -204
36 -28 -12 -54 -14 -105 -9 -37 4 -68 9 -68 13 -1 37 -25 141 -40 171 -23 46
-74 90 -103 90 -35 0 -88 -37 -147 -102 l-55 -60 -105 66 c-155 98 -279 141
-360 126z m196 -125 c50 -25 126 -69 168 -100 105 -75 114 -79 133 -64 8 7 33
38 54 69 62 89 85 112 105 108 28 -5 61 -78 69 -154 6 -60 5 -68 -16 -90 -12
-13 -30 -47 -40 -76 -10 -29 -26 -57 -36 -63 -64 -34 -96 -60 -110 -90 -14
-30 -15 -40 -4 -77 7 -23 26 -61 42 -85 35 -50 36 -67 7 -87 -31 -22 -35 -20
-42 15 -10 52 -44 97 -87 116 -29 12 -38 21 -33 33 4 8 14 42 22 75 8 33 18
67 22 75 4 8 42 36 85 61 91 54 106 73 78 101 -20 20 -21 19 -100 -21 l-80
-40 -24 26 c-13 14 -61 48 -106 75 -59 36 -85 59 -92 79 -13 38 -56 41 -73 4
-20 -43 5 -79 91 -132 113 -69 131 -88 131 -140 l0 -42 -35 21 c-48 27 -155
37 -174 15 -7 -9 -11 -26 -9 -39 3 -20 10 -24 66 -30 56 -6 122 -36 122 -56 0
-23 -47 -77 -96 -109 -54 -36 -58 -37 -68 -19 -35 61 -106 142 -138 158 -20
11 -60 21 -89 24 -29 2 -64 11 -77 20 l-25 17 24 18 c13 10 53 30 88 44 56 23
68 25 89 14 27 -15 55 -3 60 25 2 9 -14 44 -36 79 -80 127 -109 207 -91 254
21 55 94 52 225 -12z"/>
<path d="M1844 1742 c-6 -4 -14 -50 -17 -102 -5 -81 -11 -104 -42 -167 -20
-40 -40 -73 -45 -73 -8 0 -27 56 -71 207 -13 46 -40 63 -66 42 -21 -18 -13
-80 30 -204 40 -117 62 -164 83 -172 19 -7 65 36 105 98 28 45 34 48 112 69
100 27 117 36 117 59 0 41 -27 47 -126 26 l-32 -7 10 53 c22 120 -7 205 -58
171z"/>
<path d="M722 1528 c-17 -17 -15 -25 13 -62 26 -34 34 -76 14 -76 -6 0 -30 16
-53 35 -46 37 -65 42 -84 23 -23 -23 -12 -47 41 -90 99 -84 145 -106 162 -79
13 22 25 119 19 159 -11 75 -75 127 -112 90z"/>
<path d="M320 1185 c-27 -33 36 -254 107 -370 99 -164 230 -287 410 -387 l112
-63 3 -45 3 -45 330 0 330 0 5 44 5 45 98 55 c131 75 205 131 284 214 125 133
210 292 241 453 13 68 13 85 3 98 -12 14 -112 16 -966 16 -829 0 -954 -2 -965
-15z m1845 -102 c-44 -237 -248 -479 -512 -609 -92 -45 -113 -64 -113 -103 0
-21 -4 -21 -255 -21 l-255 0 0 28 c0 15 -4 32 -8 38 -4 6 -52 34 -107 62 -149
74 -260 162 -357 282 -68 85 -134 224 -152 323 l-7 37 887 0 886 0 -7 -37z"/>
</g>
</svg>
