<?xml version="1.0" standalone="no"?>
<!--<!DOCTYPE svg PUBLIC "-//W3C//DTD SVG 20010904//EN"
 "http://www.w3.org/TR/2001/REC-SVG-20010904/DTD/svg10.dtd">-->
<svg version="1.0" xmlns="http://www.w3.org/2000/svg"
 width="256.000000pt" height="256.000000pt" viewBox="0 0 256.000000 256.000000"
 preserveAspectRatio="xMidYMid meet">

<g transform="translate(0.000000,256.000000) scale(0.100000,-0.100000)"
fill="#000000" stroke="none">
<path d="M782 2100 c-75 -14 -189 -60 -255 -104 -86 -57 -190 -174 -236 -266
-65 -130 -73 -187 -69 -491 l4 -264 31 -83 c73 -190 209 -331 391 -405 87 -36
154 -48 259 -48 150 0 230 20 458 113 205 84 341 118 483 118 243 1 458 176
502 409 13 70 13 423 -1 481 -63 274 -407 455 -999 524 -165 20 -496 29 -568
16z m523 -96 c280 -27 506 -83 682 -169 173 -84 257 -178 283 -314 19 -104
-18 -231 -97 -328 -45 -55 -51 -71 -31 -91 22 -22 48 -12 93 36 l45 47 -6 -45
c-19 -142 -76 -239 -181 -312 -71 -48 -137 -66 -284 -77 -170 -12 -259 -35
-489 -126 -202 -80 -300 -105 -413 -105 -279 0 -527 197 -591 470 -22 91 -20
100 11 55 79 -118 167 -194 291 -252 107 -50 195 -66 327 -60 132 6 200 25
420 113 203 80 289 103 438 113 65 5 123 13 129 19 14 14 6 53 -14 66 -23 14
-241 -7 -341 -34 -43 -11 -158 -52 -255 -91 -258 -104 -386 -126 -537 -94
-298 63 -500 327 -482 630 18 290 236 527 522 565 76 10 286 3 480 -16z"/>
<path d="M771 1924 c-187 -50 -335 -209 -376 -401 -18 -86 -18 -121 0 -208 22
-105 68 -189 144 -264 105 -105 218 -151 371 -151 113 0 179 17 393 101 223
88 335 116 507 128 118 9 140 13 196 41 110 54 174 151 182 275 7 113 -35 188
-148 265 -102 69 -266 130 -455 168 -167 34 -190 36 -208 17 -10 -9 -17 -21
-17 -26 0 -19 41 -49 66 -49 88 0 363 -75 478 -130 135 -64 205 -142 206 -227
0 -56 -38 -138 -82 -178 -56 -51 -92 -64 -205 -71 -196 -12 -317 -41 -552
-136 -176 -71 -234 -88 -326 -95 -191 -14 -356 83 -439 257 -29 61 -31 72 -31
180 0 111 1 118 34 185 60 123 178 216 309 244 29 6 104 11 167 11 103 0 115
2 125 19 13 25 13 27 -6 45 -21 21 -254 21 -333 0z"/>
<path d="M849 1691 c-118 -23 -194 -139 -160 -244 16 -48 89 -113 142 -127 85
-23 185 9 236 76 21 29 28 50 31 98 3 54 0 66 -26 107 -44 69 -137 106 -223
90z m111 -96 c65 -34 77 -110 26 -161 -30 -30 -40 -34 -85 -34 -29 0 -66 7
-82 16 -35 18 -63 75 -53 107 8 28 43 67 69 77 32 14 94 11 125 -5z"/>
</g>
</svg>
