<?xml version="1.0" standalone="no"?>
<!--<!DOCTYPE svg PUBLIC "-//W3C//DTD SVG 20010904//EN"
 "http://www.w3.org/TR/2001/REC-SVG-20010904/DTD/svg10.dtd">-->
<svg version="1.0" xmlns="http://www.w3.org/2000/svg"
 width="256.000000pt" height="256.000000pt" viewBox="0 0 256.000000 256.000000"
 preserveAspectRatio="xMidYMid meet">

<g transform="translate(0.000000,256.000000) scale(0.100000,-0.100000)"
fill="#000000" stroke="none">
<path d="M416 2325 c-14 -15 -14 -19 0 -53 44 -100 62 -153 68 -198 l7 -49
-26 55 c-37 76 -89 136 -158 181 -66 43 -101 49 -117 20 -15 -28 -3 -49 39
-68 52 -25 138 -114 162 -170 12 -26 24 -77 26 -113 5 -62 3 -68 -31 -118
-118 -176 -109 -508 28 -1045 41 -160 162 -547 171 -547 22 0 187 462 254 710
57 213 75 338 76 525 0 161 -2 187 -23 245 -12 36 -40 89 -63 119 l-41 54 11
59 c21 120 70 193 182 269 46 31 59 46 57 61 -9 62 -95 32 -196 -68 -68 -68
-102 -131 -122 -227 -6 -31 -15 -55 -18 -53 -4 2 -5 37 -1 78 15 185 -4 261
-83 318 -50 36 -85 39 -97 8 -11 -31 -5 -44 35 -67 20 -12 41 -36 49 -56 25
-58 17 -255 -10 -255 -8 0 -14 27 -19 80 -7 88 -43 212 -79 275 -25 44 -55 55
-81 30z m299 -509 c50 -33 103 -126 105 -183 0 -22 -2 -22 -89 -18 -105 6
-141 -4 -141 -39 0 -37 27 -46 145 -46 l106 0 -2 -75 c-3 -132 3 -124 -103
-122 -114 3 -146 -5 -146 -36 0 -41 18 -47 127 -47 l104 0 -7 -37 c-30 -173
-96 -417 -171 -628 -49 -139 -47 -137 -71 -64 -29 87 -82 270 -82 280 0 4 37
9 81 11 65 2 84 7 93 21 8 12 8 22 0 35 -9 13 -30 18 -105 22 l-94 5 -17 85
c-65 322 -76 591 -28 714 56 147 179 198 295 122z"/>
<path d="M1794 2123 c-66 -69 -204 -391 -204 -474 0 -16 -6 -16 -61 11 -77 36
-149 46 -225 30 -141 -30 -243 -108 -303 -233 -51 -107 -65 -190 -58 -331 15
-282 163 -558 351 -653 100 -51 223 -40 324 28 l43 29 40 -30 c161 -116 364
-62 504 135 113 158 168 335 169 540 0 140 -13 202 -61 299 -74 147 -274 249
-429 217 -61 -12 -145 -50 -180 -82 -27 -26 -34 -24 -34 9 0 28 25 130 34 139
2 2 15 -2 28 -11 35 -23 99 -29 164 -16 64 13 244 93 244 108 0 16 -75 106
-116 140 -47 39 -115 72 -149 72 -28 0 -32 12 -10 30 28 24 12 80 -23 80 -7 0
-29 -16 -48 -37z m121 -172 c22 -10 55 -35 74 -54 l34 -36 -39 -16 c-65 -27
-147 -46 -177 -39 -15 3 -35 16 -43 29 -22 34 -3 90 40 116 39 24 60 24 111 0z
m-413 -369 c26 -13 72 -48 102 -78 l55 -55 56 55 c72 72 123 98 207 104 152
11 282 -75 337 -222 83 -221 12 -558 -157 -746 -123 -138 -268 -152 -396 -39
l-46 40 -49 -41 c-94 -80 -192 -95 -288 -46 -197 101 -342 472 -289 736 34
165 112 264 241 307 61 19 171 12 227 -15z"/>
</g>
</svg>
